<?xml version="1.0" encoding="UTF-8"?>
<!DOCTYPE svg PUBLIC "-//W3C//DTD SVG 1.1//EN" "http://www.w3.org/Graphics/SVG/1.1/DTD/svg11.dtd">
<svg xmlns="http://www.w3.org/2000/svg" version="1.1" width="368px" height="352px" style="shape-rendering:geometricPrecision; text-rendering:geometricPrecision; image-rendering:optimizeQuality; fill-rule:evenodd; clip-rule:evenodd" xmlns:xlink="http://www.w3.org/1999/xlink">
<g><path style="opacity:1" fill="#030303" d="M 269.5,37.5 C 269.116,41.4885 269.783,45.1552 271.5,48.5C 271.5,48.8333 271.5,49.1667 271.5,49.5C 271.229,54.4338 271.896,59.1004 273.5,63.5C 275.134,70.9487 276.134,78.6154 276.5,86.5C 276.28,91.1 276.946,95.4333 278.5,99.5C 279.933,107.433 280.933,115.433 281.5,123.5C 281.123,128.453 281.789,133.119 283.5,137.5C 285.055,145.39 286.055,153.39 286.5,161.5C 286.585,169.091 287.585,176.424 289.5,183.5C 291.801,195.614 293.468,207.947 294.5,220.5C 294.362,225.414 295.028,230.081 296.5,234.5C 296.302,239.75 296.969,244.75 298.5,249.5C 300.242,256.694 301.242,264.027 301.5,271.5C 302.88,281.65 300.88,290.983 295.5,299.5C 294.5,299.833 293.833,300.5 293.5,301.5C 292.5,301.833 291.833,302.5 291.5,303.5C 291.5,304.167 291.167,304.5 290.5,304.5C 288.973,304.427 287.973,305.094 287.5,306.5C 287.158,307.338 286.492,307.672 285.5,307.5C 269.717,310.69 253.717,312.357 237.5,312.5C 235.316,310.415 232.649,309.415 229.5,309.5C 228.508,309.672 227.842,309.338 227.5,308.5C 226.089,306.086 224.089,304.419 221.5,303.5C 220.5,303.167 219.833,302.5 219.5,301.5C 219.573,299.973 218.906,298.973 217.5,298.5C 216.662,298.158 216.328,297.492 216.5,296.5C 215.733,292.851 214.4,289.518 212.5,286.5C 212.741,284.102 212.074,282.102 210.5,280.5C 209.566,279.432 209.232,278.099 209.5,276.5C 209.204,274.597 208.537,272.93 207.5,271.5C 206.072,265.216 204.072,259.216 201.5,253.5C 200.262,251.786 199.595,249.786 199.5,247.5C 199.204,245.597 198.537,243.93 197.5,242.5C 197.741,240.102 197.074,238.102 195.5,236.5C 195.737,235.209 195.404,234.209 194.5,233.5C 193.89,232.609 193.557,231.609 193.5,230.5C 193.405,228.214 192.738,226.214 191.5,224.5C 189.926,222.898 189.259,220.898 189.5,218.5C 189.598,216.447 188.931,214.78 187.5,213.5C 187.741,211.102 187.074,209.102 185.5,207.5C 184.262,205.786 183.595,203.786 183.5,201.5C 183.405,199.214 182.738,197.214 181.5,195.5C 178.996,189.789 176.996,183.789 175.5,177.5C 175.631,176.624 175.298,175.957 174.5,175.5C 173.614,176.325 173.281,177.325 173.5,178.5C 172.669,181.659 171.669,184.659 170.5,187.5C 166.725,195.821 163.725,204.488 161.5,213.5C 159.69,216.145 158.69,219.145 158.5,222.5C 150.202,243.392 142.868,264.726 136.5,286.5C 134.369,291.542 132.036,296.542 129.5,301.5C 129.167,302.5 128.5,303.167 127.5,303.5C 126.5,303.833 125.833,304.5 125.5,305.5C 125.5,306.167 125.167,306.5 124.5,306.5C 117.981,310.566 110.815,312.566 103,312.5C 92.885,311.032 82.7183,310.366 72.5,310.5C 72.1667,310.5 71.8333,310.5 71.5,310.5C 69.064,309.129 66.3973,308.129 63.5,307.5C 62.5084,307.672 61.8417,307.338 61.5,306.5C 60.7377,304.738 59.4044,303.738 57.5,303.5C 56.5,301.833 55.1667,300.5 53.5,299.5C 51.2057,295.248 49.2057,290.915 47.5,286.5C 46.2604,276.735 46.9271,267.069 49.5,257.5C 51.2348,250.063 52.2348,242.396 52.5,234.5C 53.0387,226.732 54.0387,219.066 55.5,211.5C 57.1773,207.455 57.8439,203.122 57.5,198.5C 57.5,198.167 57.5,197.833 57.5,197.5C 59.4527,190.766 60.4527,183.766 60.5,176.5C 60.5,175.5 60.5,174.5 60.5,173.5C 62.2105,169.119 62.8772,164.453 62.5,159.5C 64.5416,139.278 67.2082,119.278 70.5,99.5C 71.9715,95.0808 72.6382,90.4141 72.5,85.5C 74.364,78.4216 75.364,71.0882 75.5,63.5C 75.5,63.1667 75.5,62.8333 75.5,62.5C 77.3154,54.0306 78.8154,45.3639 80,36.5C 80.9042,33.7666 82.4042,31.4333 84.5,29.5C 84.9175,28.7784 85.5842,28.2784 86.5,28C 144.5,27.3333 202.5,27.3333 260.5,28C 266.108,28.7734 269.108,31.94 269.5,37.5 Z"/></g>
<g><path style="opacity:0.039" fill="#c7c7c7" d="M 84.5,29.5 C 82.4042,31.4333 80.9042,33.7666 80,36.5C 78.8154,45.3639 77.3154,54.0306 75.5,62.5C 76.2079,52.3781 77.7079,42.3781 80,32.5C 81.129,30.8588 82.629,29.8588 84.5,29.5 Z"/></g>
<g><path style="opacity:0.686" fill="#818181" d="M 269.5,37.5 C 270.903,40.9085 271.57,44.5752 271.5,48.5C 269.783,45.1552 269.116,41.4885 269.5,37.5 Z"/></g>
<g><path style="opacity:0.467" fill="#aaaaaa" d="M 271.5,49.5 C 272.644,53.9637 273.31,58.6304 273.5,63.5C 271.896,59.1004 271.229,54.4338 271.5,49.5 Z"/></g>
<g><path style="opacity:0.141" fill="#cccccc" d="M 75.5,63.5 C 75.364,71.0882 74.364,78.4216 72.5,85.5C 72.7721,77.934 73.7721,70.6006 75.5,63.5 Z"/></g>
<g><path style="opacity:0.384" fill="#cecece" d="M 72.5,85.5 C 72.6382,90.4141 71.9715,95.0808 70.5,99.5C 70.5319,94.6093 71.1985,89.9426 72.5,85.5 Z"/></g>
<g><path style="opacity:0.392" fill="#bcbcbc" d="M 276.5,86.5 C 277.709,90.6181 278.376,94.9515 278.5,99.5C 276.946,95.4333 276.28,91.1 276.5,86.5 Z"/></g>
<g><path style="opacity:0.533" fill="#a3a3a3" d="M 281.5,123.5 C 282.644,127.964 283.31,132.63 283.5,137.5C 281.789,133.119 281.123,128.453 281.5,123.5 Z"/></g>
<g><path style="opacity:0.494" fill="#b5b5b5" d="M 62.5,159.5 C 62.8772,164.453 62.2105,169.119 60.5,173.5C 60.8127,168.647 61.4794,163.98 62.5,159.5 Z"/></g>
<g><path style="opacity:0.533" fill="#9b9b9b" d="M 286.5,161.5 C 288.041,168.625 289.041,175.958 289.5,183.5C 287.585,176.424 286.585,169.091 286.5,161.5 Z"/></g>
<g><path style="opacity:0.098" fill="#c4c4c4" d="M 175.5,177.5 C 174.833,177.833 174.167,178.167 173.5,178.5C 173.281,177.325 173.614,176.325 174.5,175.5C 175.298,175.957 175.631,176.624 175.5,177.5 Z"/></g>
<g><path style="opacity:0.651" fill="#a5a5a5" d="M 60.5,176.5 C 60.4527,183.766 59.4527,190.766 57.5,197.5C 57.8652,190.276 58.8652,183.276 60.5,176.5 Z"/></g>
<g><path style="opacity:0.216" fill="#cdcdcd" d="M 170.5,187.5 C 168.269,196.529 165.269,205.196 161.5,213.5C 163.725,204.488 166.725,195.821 170.5,187.5 Z"/></g>
<g><path style="opacity:0.016" fill="#d3d3d3" d="M 181.5,195.5 C 182.738,197.214 183.405,199.214 183.5,201.5C 181.926,199.898 181.259,197.898 181.5,195.5 Z"/></g>
<g><path style="opacity:0.478" fill="#a9a9a9" d="M 57.5,198.5 C 57.8439,203.122 57.1773,207.455 55.5,211.5C 55.6245,206.951 56.2911,202.618 57.5,198.5 Z"/></g>
<g><path style="opacity:0.31" fill="#acacac" d="M 185.5,207.5 C 187.074,209.102 187.741,211.102 187.5,213.5C 186.262,211.786 185.595,209.786 185.5,207.5 Z"/></g>
<g><path style="opacity:0.012" fill="#dbdbdb" d="M 161.5,213.5 C 161.31,216.855 160.31,219.855 158.5,222.5C 158.69,219.145 159.69,216.145 161.5,213.5 Z"/></g>
<g><path style="opacity:0.255" fill="#afafaf" d="M 187.5,213.5 C 188.931,214.78 189.598,216.447 189.5,218.5C 188.069,217.22 187.402,215.553 187.5,213.5 Z"/></g>
<g><path style="opacity:0.004" fill="#cecece" d="M 191.5,224.5 C 192.738,226.214 193.405,228.214 193.5,230.5C 191.926,228.898 191.259,226.898 191.5,224.5 Z"/></g>
<g><path style="opacity:0.11" fill="#cbcbcb" d="M 294.5,220.5 C 295.972,224.919 296.638,229.586 296.5,234.5C 295.028,230.081 294.362,225.414 294.5,220.5 Z"/></g>
<g><path style="opacity:0.333" fill="#bcbcbc" d="M 194.5,233.5 C 195.404,234.209 195.737,235.209 195.5,236.5C 194.733,235.828 194.066,234.995 193.5,234C 193.728,233.601 194.062,233.435 194.5,233.5 Z"/></g>
<g><path style="opacity:0.333" fill="#a7a7a7" d="M 195.5,236.5 C 197.074,238.102 197.741,240.102 197.5,242.5C 196.262,240.786 195.595,238.786 195.5,236.5 Z"/></g>
<g><path style="opacity:0.471" fill="#b8b8b8" d="M 296.5,234.5 C 297.889,239.269 298.556,244.269 298.5,249.5C 296.969,244.75 296.302,239.75 296.5,234.5 Z"/></g>
<g><path style="opacity:0.016" fill="#e6e6e6" d="M 197.5,242.5 C 198.537,243.93 199.204,245.597 199.5,247.5C 197.787,246.365 197.12,244.698 197.5,242.5 Z"/></g>
<g><path style="opacity:0.102" fill="#c9c9c9" d="M 52.5,234.5 C 52.2348,242.396 51.2348,250.063 49.5,257.5C 49.6789,249.592 50.6789,241.926 52.5,234.5 Z"/></g>
<g><path style="opacity:0.059" fill="#d2d2d2" d="M 158.5,222.5 C 151.742,244.109 144.409,265.443 136.5,286.5C 142.868,264.726 150.202,243.392 158.5,222.5 Z"/></g>
<g><path style="opacity:0.012" fill="#d1d1d1" d="M 201.5,253.5 C 204.072,259.216 206.072,265.216 207.5,271.5C 204.527,265.915 202.527,259.915 201.5,253.5 Z"/></g>
<g><path style="opacity:0.02" fill="#dfdfdf" d="M 207.5,271.5 C 208.537,272.93 209.204,274.597 209.5,276.5C 207.787,275.365 207.12,273.698 207.5,271.5 Z"/></g>
<g><path style="opacity:0.271" fill="#b8b8b8" d="M 210.5,280.5 C 212.074,282.102 212.741,284.102 212.5,286.5C 211.262,284.786 210.595,282.786 210.5,280.5 Z"/></g>
<g><path style="opacity:0.069" fill="#d2d2d2" d="M 301.5,271.5 C 303.556,280.483 302.389,289.149 298,297.5C 297.292,298.381 296.458,299.047 295.5,299.5C 300.88,290.983 302.88,281.65 301.5,271.5 Z"/></g>
<g><path style="opacity:0.208" fill="#c7c7c7" d="M 212.5,286.5 C 214.4,289.518 215.733,292.851 216.5,296.5C 214.215,293.665 212.882,290.332 212.5,286.5 Z"/></g>
<g><path style="opacity:0.114" fill="#cecece" d="M 47.5,286.5 C 49.2057,290.915 51.2057,295.248 53.5,299.5C 49.6314,296.093 47.6314,291.759 47.5,286.5 Z"/></g>
<g><path style="opacity:0.051" fill="#d2d2d2" d="M 136.5,286.5 C 135.877,292.403 133.543,297.403 129.5,301.5C 132.036,296.542 134.369,291.542 136.5,286.5 Z"/></g>
<g><path style="opacity:0.039" fill="#d6d6d6" d="M 217.5,298.5 C 218.906,298.973 219.573,299.973 219.5,301.5C 218.094,301.027 217.427,300.027 217.5,298.5 Z"/></g>
<g><path style="opacity:0.004" fill="#ededed" d="M 53.5,299.5 C 55.1667,300.5 56.5,301.833 57.5,303.5C 55.1667,303.167 53.8333,301.833 53.5,299.5 Z"/></g>
<g><path style="opacity:0.008" fill="#ebebeb" d="M 295.5,299.5 C 295.5,300.833 294.833,301.5 293.5,301.5C 293.833,300.5 294.5,299.833 295.5,299.5 Z"/></g>
<g><path style="opacity:0.012" fill="#ededed" d="M 293.5,301.5 C 293.5,302.833 292.833,303.5 291.5,303.5C 291.833,302.5 292.5,301.833 293.5,301.5 Z"/></g>
<g><path style="opacity:0.286" fill="#bdbdbd" d="M 57.5,303.5 C 59.4044,303.738 60.7377,304.738 61.5,306.5C 59.5956,306.262 58.2623,305.262 57.5,303.5 Z"/></g>
<g><path style="opacity:0.008" fill="#e8e8e8" d="M 127.5,303.5 C 127.5,304.833 126.833,305.5 125.5,305.5C 125.833,304.5 126.5,303.833 127.5,303.5 Z"/></g>
<g><path style="opacity:0.035" fill="#e9e9e9" d="M 290.5,304.5 C 290.027,305.906 289.027,306.573 287.5,306.5C 287.973,305.094 288.973,304.427 290.5,304.5 Z"/></g>
<g><path style="opacity:0.161" fill="#b1b1b1" d="M 221.5,303.5 C 224.089,304.419 226.089,306.086 227.5,308.5C 224.911,307.581 222.911,305.914 221.5,303.5 Z"/></g>
<g><path style="opacity:0.02" fill="#e8e8e8" d="M 63.5,307.5 C 66.3973,308.129 69.064,309.129 71.5,310.5C 68.284,310.655 65.6174,309.655 63.5,307.5 Z"/></g>
<g><path style="opacity:0.949" fill="#8f8f8f" d="M 229.5,309.5 C 232.649,309.415 235.316,310.415 237.5,312.5C 234.351,312.585 231.684,311.585 229.5,309.5 Z"/></g>
<g><path style="opacity:0.035" fill="#e8e8e8" d="M 285.5,307.5 C 283.333,309.511 280.666,310.678 277.5,311C 264.033,312.774 250.7,313.274 237.5,312.5C 253.717,312.357 269.717,310.69 285.5,307.5 Z"/></g>
<g><path style="opacity:0.069" fill="#d7d7d7" d="M 124.5,306.5 C 121.057,310.222 116.723,312.389 111.5,313C 98.2843,313.388 85.2843,312.555 72.5,310.5C 82.7183,310.366 92.885,311.032 103,312.5C 110.815,312.566 117.981,310.566 124.5,306.5 Z"/></g>
</svg>
